# xmcd
# 
# Track frame offsets:
#     150
#     43400
#     52637
#     86450
#     112270
#     162985
#     198730
#     240102
#     284610
# 
# Disc length: 4308
# 
# Revision: 1
# Processed by: cddbd v1.5.2PL0 Copyright (c) Steve Scherf et al.
# Submitted via: BonkEnc v1.0.8
# 
DISCID=7a10d209
DTITLE=Hakan Brostrom - Dark Light
DYEAR=1991
DGENRE=Contemporary Jazz
TTITLE0=Dark light
TTITLE1=Friendship
TTITLE2=Till Cornelis
TTITLE3=Rain ballad
TTITLE4=Who's coming
TTITLE5=In and out
TTITLE6=On the edge
TTITLE7=Magic hands
TTITLE8=Love call
EXTD=YEAR: 1991
EXTT0=
EXTT1=
EXTT2=
EXTT3=
EXTT4=
EXTT5=
EXTT6=
EXTT7=
EXTT8=
PLAYORDER=
